<svg width="792" height="192" viewBox="0 0 792 192" fill="none" xmlns="http://www.w3.org/2000/svg" xmlns:xlink="http://www.w3.org/1999/xlink">
<rect width="792" height="192" fill="#1E1E1E"/>
<g id="SSN - Bento">
<rect width="1280" height="1037" transform="translate(-447.667 -692.333)" fill="white"/>
<g id="Frame 5">
<rect x="-1" y="-1" width="793.333" height="305.667" rx="12" fill="#FDFDFD"/>
<rect x="-0.5" y="-0.5" width="792.333" height="304.667" rx="11.5" stroke="black" stroke-opacity="0.2"/>
<g id="Frame 659" clip-path="url(#clip0_0_1)">
<rect width="791.333" height="191.667" fill="url(#pattern0_0_1)" fill-opacity="0.05"/>
<g id="Frame 81">
<g id="Group 1">
<path id="Vector 2" d="M476.333 108.667C600.13 108.667 670.037 157.667 793.833 157.667" stroke="black" stroke-opacity="0.1"/>
<path id="Vector 3" d="M476.333 83.6667C600.13 83.6667 670.037 34.6667 793.833 34.6667" stroke="black" stroke-opacity="0.1"/>
<path id="Vector 4" d="M315.833 108.667C192.037 108.667 122.13 157.667 -1.66666 157.667" stroke="black" stroke-opacity="0.1"/>
<path id="Vector 5" d="M315.833 83.6667C192.037 83.6667 122.13 34.6667 -1.66666 34.6667" stroke="black" stroke-opacity="0.1"/>
<path id="Vector 6" d="M357.333 60.1667V-12.3333M382.833 60.1667V-12.3333M408.333 60.1667V-12.3333M434.333 60.1667V-12.3333M460.333 60.1667C460.333 -7.33331 559.333 26.4797 559.333 -1.83331M331.333 60.1667C331.333 -7.33331 231.333 26.4797 231.333 -1.83331" stroke="black" stroke-opacity="0.1"/>
<path id="Vector 7" d="M357.333 131.667V204.167M382.833 131.667V204.167M408.333 131.667V204.167M434.333 131.667V204.167M460.333 131.667C460.333 199.167 559.333 165.354 559.333 193.667M331.333 131.667C331.333 199.167 231.333 165.354 231.333 193.667" stroke="black" stroke-opacity="0.1"/>
</g>
<g id="Frame 77">
<g id="Rectangle 2" filter="url(#filter0_ii_0_1)">
<path d="M325.333 43.6667C325.333 42.5621 326.229 41.6667 327.333 41.6667H335.333C336.438 41.6667 337.333 42.5621 337.333 43.6667V60.6667H325.333V43.6667Z" fill="white"/>
<path d="M325.333 43.6667C325.333 42.5621 326.229 41.6667 327.333 41.6667H335.333C336.438 41.6667 337.333 42.5621 337.333 43.6667V60.6667H325.333V43.6667Z" fill="url(#paint0_linear_0_1)" fill-opacity="0.89"/>
</g>
<g id="Rectangle 5" filter="url(#filter1_ii_0_1)">
<path d="M351.133 43.6667C351.133 42.5621 352.029 41.6667 353.133 41.6667H361.133C362.238 41.6667 363.133 42.5621 363.133 43.6667V60.6667H351.133V43.6667Z" fill="white"/>
<path d="M351.133 43.6667C351.133 42.5621 352.029 41.6667 353.133 41.6667H361.133C362.238 41.6667 363.133 42.5621 363.133 43.6667V60.6667H351.133V43.6667Z" fill="url(#paint1_linear_0_1)" fill-opacity="0.89"/>
</g>
<g id="Rectangle 6" filter="url(#filter2_ii_0_1)">
<path d="M376.933 43.6667C376.933 42.5621 377.829 41.6667 378.933 41.6667H386.933C388.038 41.6667 388.933 42.5621 388.933 43.6667V60.6667H376.933V43.6667Z" fill="white"/>
<path d="M376.933 43.6667C376.933 42.5621 377.829 41.6667 378.933 41.6667H386.933C388.038 41.6667 388.933 42.5621 388.933 43.6667V60.6667H376.933V43.6667Z" fill="url(#paint2_linear_0_1)" fill-opacity="0.89"/>
</g>
<g id="Rectangle 7" filter="url(#filter3_ii_0_1)">
<path d="M402.733 43.6667C402.733 42.5621 403.629 41.6667 404.733 41.6667H412.733C413.838 41.6667 414.733 42.5621 414.733 43.6667V60.6667H402.733V43.6667Z" fill="white"/>
<path d="M402.733 43.6667C402.733 42.5621 403.629 41.6667 404.733 41.6667H412.733C413.838 41.6667 414.733 42.5621 414.733 43.6667V60.6667H402.733V43.6667Z" fill="url(#paint3_linear_0_1)" fill-opacity="0.89"/>
</g>
<g id="Rectangle 8" filter="url(#filter4_ii_0_1)">
<path d="M428.533 43.6667C428.533 42.5621 429.429 41.6667 430.533 41.6667H438.533C439.638 41.6667 440.533 42.5621 440.533 43.6667V60.6667H428.533V43.6667Z" fill="white"/>
<path d="M428.533 43.6667C428.533 42.5621 429.429 41.6667 430.533 41.6667H438.533C439.638 41.6667 440.533 42.5621 440.533 43.6667V60.6667H428.533V43.6667Z" fill="url(#paint4_linear_0_1)" fill-opacity="0.89"/>
</g>
<g id="Rectangle 4" filter="url(#filter5_ii_0_1)">
<path d="M454.333 43.6667C454.333 42.5621 455.229 41.6667 456.333 41.6667H464.333C465.438 41.6667 466.333 42.5621 466.333 43.6667V60.6667H454.333V43.6667Z" fill="white"/>
<path d="M454.333 43.6667C454.333 42.5621 455.229 41.6667 456.333 41.6667H464.333C465.438 41.6667 466.333 42.5621 466.333 43.6667V60.6667H454.333V43.6667Z" fill="url(#paint5_linear_0_1)" fill-opacity="0.89"/>
</g>
</g>
<g id="Frame 78">
<g id="Rectangle 2_2" filter="url(#filter6_ii_0_1)">
<path d="M325.333 148.667C325.333 149.771 326.229 150.667 327.333 150.667H335.333C336.438 150.667 337.333 149.771 337.333 148.667V131.667H325.333V148.667Z" fill="white"/>
<path d="M325.333 148.667C325.333 149.771 326.229 150.667 327.333 150.667H335.333C336.438 150.667 337.333 149.771 337.333 148.667V131.667H325.333V148.667Z" fill="url(#paint6_linear_0_1)" fill-opacity="0.89"/>
</g>
<g id="Rectangle 5_2" filter="url(#filter7_ii_0_1)">
<path d="M351.133 148.667C351.133 149.771 352.029 150.667 353.133 150.667H361.133C362.238 150.667 363.133 149.771 363.133 148.667V131.667H351.133V148.667Z" fill="white"/>
<path d="M351.133 148.667C351.133 149.771 352.029 150.667 353.133 150.667H361.133C362.238 150.667 363.133 149.771 363.133 148.667V131.667H351.133V148.667Z" fill="url(#paint7_linear_0_1)" fill-opacity="0.89"/>
</g>
<g id="Rectangle 6_2" filter="url(#filter8_ii_0_1)">
<path d="M376.933 148.667C376.933 149.771 377.829 150.667 378.933 150.667H386.933C388.038 150.667 388.933 149.771 388.933 148.667V131.667H376.933V148.667Z" fill="white"/>
<path d="M376.933 148.667C376.933 149.771 377.829 150.667 378.933 150.667H386.933C388.038 150.667 388.933 149.771 388.933 148.667V131.667H376.933V148.667Z" fill="url(#paint8_linear_0_1)" fill-opacity="0.89"/>
</g>
<g id="Rectangle 7_2" filter="url(#filter9_ii_0_1)">
<path d="M402.733 148.667C402.733 149.771 403.629 150.667 404.733 150.667H412.733C413.838 150.667 414.733 149.771 414.733 148.667V131.667H402.733V148.667Z" fill="white"/>
<path d="M402.733 148.667C402.733 149.771 403.629 150.667 404.733 150.667H412.733C413.838 150.667 414.733 149.771 414.733 148.667V131.667H402.733V148.667Z" fill="url(#paint9_linear_0_1)" fill-opacity="0.89"/>
</g>
<g id="Rectangle 8_2" filter="url(#filter10_ii_0_1)">
<path d="M428.533 148.667C428.533 149.771 429.429 150.667 430.533 150.667H438.533C439.638 150.667 440.533 149.771 440.533 148.667V131.667H428.533V148.667Z" fill="white"/>
<path d="M428.533 148.667C428.533 149.771 429.429 150.667 430.533 150.667H438.533C439.638 150.667 440.533 149.771 440.533 148.667V131.667H428.533V148.667Z" fill="url(#paint10_linear_0_1)" fill-opacity="0.89"/>
</g>
<g id="Rectangle 4_2" filter="url(#filter11_ii_0_1)">
<path d="M454.333 148.667C454.333 149.771 455.229 150.667 456.333 150.667H464.333C465.438 150.667 466.333 149.771 466.333 148.667V131.667H454.333V148.667Z" fill="white"/>
<path d="M454.333 148.667C454.333 149.771 455.229 150.667 456.333 150.667H464.333C465.438 150.667 466.333 149.771 466.333 148.667V131.667H454.333V148.667Z" fill="url(#paint11_linear_0_1)" fill-opacity="0.89"/>
</g>
</g>
<g id="Frame 76" filter="url(#filter12_ddddn_0_1)">
<rect x="315.833" y="60.6667" width="160" height="71" rx="5" fill="url(#paint12_linear_0_1)"/>
<rect x="317.833" y="62.6667" width="156" height="67" rx="3" stroke="url(#paint13_linear_0_1)" stroke-width="4"/>
<rect x="317.833" y="62.6667" width="156" height="67" rx="3" stroke="url(#paint14_linear_0_1)" stroke-width="4"/>
<path id="Processor" d="M341.555 104.667V87.2121H348.1C349.441 87.2121 350.566 87.4621 351.475 87.9621C352.39 88.4621 353.081 89.1496 353.546 90.0246C354.018 90.894 354.254 91.8826 354.254 92.9906C354.254 94.1099 354.018 95.1042 353.546 95.9735C353.075 96.8428 352.379 97.5275 351.458 98.0275C350.538 98.5218 349.404 98.769 348.058 98.769H343.72V96.1695H347.632C348.416 96.1695 349.058 96.0332 349.558 95.7604C350.058 95.4877 350.427 95.1127 350.666 94.6354C350.91 94.1582 351.032 93.6099 351.032 92.9906C351.032 92.3712 350.91 91.8258 350.666 91.3542C350.427 90.8826 350.055 90.5161 349.549 90.2548C349.049 89.9877 348.404 89.8542 347.615 89.8542H344.717V104.667H341.555ZM356.144 104.667V91.5758H359.135V93.7576H359.272C359.51 93.0019 359.919 92.4195 360.499 92.0104C361.084 91.5957 361.752 91.3883 362.502 91.3883C362.672 91.3883 362.863 91.3968 363.073 91.4138C363.289 91.4252 363.468 91.4451 363.61 91.4735V94.3116C363.479 94.2661 363.272 94.2263 362.988 94.1923C362.709 94.1525 362.439 94.1326 362.178 94.1326C361.615 94.1326 361.11 94.2548 360.661 94.4991C360.218 94.7377 359.868 95.0701 359.613 95.4962C359.357 95.9224 359.229 96.4138 359.229 96.9707V104.667H356.144ZM370.111 104.922C368.832 104.922 367.724 104.641 366.787 104.079C365.849 103.516 365.122 102.729 364.605 101.718C364.094 100.706 363.838 99.5246 363.838 98.1724C363.838 96.8201 364.094 95.6354 364.605 94.6184C365.122 93.6013 365.849 92.8116 366.787 92.2491C367.724 91.6866 368.832 91.4053 370.111 91.4053C371.389 91.4053 372.497 91.6866 373.435 92.2491C374.372 92.8116 375.096 93.6013 375.608 94.6184C376.125 95.6354 376.383 96.8201 376.383 98.1724C376.383 99.5246 376.125 100.706 375.608 101.718C375.096 102.729 374.372 103.516 373.435 104.079C372.497 104.641 371.389 104.922 370.111 104.922ZM370.128 102.451C370.821 102.451 371.4 102.26 371.866 101.88C372.332 101.493 372.679 100.976 372.906 100.329C373.139 99.6809 373.256 98.9593 373.256 98.1638C373.256 97.3627 373.139 96.6383 372.906 95.9906C372.679 95.3371 372.332 94.8173 371.866 94.4309C371.4 94.0445 370.821 93.8513 370.128 93.8513C369.417 93.8513 368.827 94.0445 368.355 94.4309C367.889 94.8173 367.54 95.3371 367.307 95.9906C367.079 96.6383 366.966 97.3627 366.966 98.1638C366.966 98.9593 367.079 99.6809 367.307 100.329C367.54 100.976 367.889 101.493 368.355 101.88C368.827 102.26 369.417 102.451 370.128 102.451ZM383.992 104.922C382.685 104.922 381.563 104.635 380.626 104.062C379.694 103.488 378.975 102.695 378.47 101.684C377.97 100.667 377.72 99.4962 377.72 98.1724C377.72 96.8428 377.975 95.6695 378.487 94.6525C378.998 93.6298 379.72 92.8343 380.651 92.2661C381.589 91.6923 382.697 91.4053 383.975 91.4053C385.038 91.4053 385.978 91.6013 386.796 91.9934C387.62 92.3798 388.276 92.9281 388.765 93.6383C389.254 94.3428 389.532 95.1667 389.6 96.1099H386.651C386.532 95.4792 386.248 94.9536 385.799 94.5332C385.356 94.107 384.762 93.894 384.018 93.894C383.387 93.894 382.833 94.0644 382.356 94.4053C381.879 94.7406 381.506 95.2235 381.239 95.8542C380.978 96.4849 380.847 97.2406 380.847 98.1212C380.847 99.0133 380.978 99.7803 381.239 100.422C381.501 101.059 381.867 101.55 382.339 101.897C382.816 102.238 383.376 102.408 384.018 102.408C384.472 102.408 384.879 102.323 385.237 102.152C385.6 101.976 385.904 101.724 386.148 101.394C386.393 101.064 386.56 100.664 386.651 100.192H389.6C389.526 101.118 389.254 101.939 388.782 102.655C388.31 103.366 387.668 103.922 386.856 104.326C386.043 104.724 385.089 104.922 383.992 104.922ZM397.209 104.922C395.897 104.922 394.763 104.65 393.808 104.104C392.86 103.553 392.129 102.775 391.618 101.769C391.107 100.758 390.851 99.5673 390.851 98.1979C390.851 96.8513 391.107 95.6695 391.618 94.6525C392.135 93.6298 392.857 92.8343 393.783 92.2661C394.709 91.6923 395.797 91.4053 397.047 91.4053C397.854 91.4053 398.615 91.536 399.331 91.7974C400.053 92.0531 400.689 92.4508 401.24 92.9906C401.797 93.5303 402.235 94.2178 402.553 95.0531C402.871 95.8826 403.03 96.8712 403.03 98.019V98.965H392.3V96.8854H400.073C400.067 96.2945 399.939 95.769 399.689 95.3087C399.439 94.8428 399.09 94.4763 398.641 94.2093C398.198 93.9423 397.681 93.8087 397.09 93.8087C396.459 93.8087 395.905 93.9621 395.428 94.269C394.951 94.5701 394.578 94.9678 394.311 95.4621C394.05 95.9508 393.916 96.4877 393.911 97.0729V98.8883C393.911 99.6496 394.05 100.303 394.328 100.849C394.607 101.388 394.996 101.803 395.496 102.093C395.996 102.377 396.581 102.519 397.252 102.519C397.701 102.519 398.107 102.456 398.47 102.331C398.834 102.201 399.149 102.01 399.416 101.76C399.683 101.51 399.885 101.201 400.022 100.831L402.902 101.155C402.72 101.917 402.374 102.581 401.862 103.15C401.357 103.712 400.709 104.15 399.919 104.462C399.129 104.769 398.226 104.922 397.209 104.922ZM415.267 95.036L412.454 95.3428C412.375 95.0587 412.235 94.7917 412.037 94.5417C411.843 94.2917 411.582 94.09 411.253 93.9366C410.923 93.7832 410.52 93.7065 410.042 93.7065C409.4 93.7065 408.86 93.8457 408.423 94.1241C407.991 94.4025 407.778 94.7633 407.784 95.2065C407.778 95.5871 407.917 95.8968 408.201 96.1354C408.491 96.3741 408.968 96.5701 409.633 96.7235L411.866 97.2008C413.105 97.4678 414.025 97.8911 414.628 98.4707C415.235 99.0502 415.542 99.8087 415.548 100.746C415.542 101.57 415.301 102.297 414.824 102.928C414.352 103.553 413.696 104.042 412.855 104.394C412.014 104.746 411.048 104.922 409.957 104.922C408.355 104.922 407.065 104.587 406.088 103.917C405.11 103.241 404.528 102.3 404.341 101.096L407.349 100.806C407.485 101.397 407.775 101.843 408.218 102.144C408.662 102.445 409.238 102.596 409.949 102.596C410.681 102.596 411.27 102.445 411.713 102.144C412.162 101.843 412.386 101.471 412.386 101.027C412.386 100.652 412.241 100.343 411.951 100.099C411.667 99.8542 411.224 99.6667 410.622 99.536L408.389 99.0673C407.133 98.8059 406.204 98.3656 405.602 97.7462C405 97.1212 404.701 96.3315 404.707 95.3769C404.701 94.5701 404.92 93.8712 405.363 93.2803C405.812 92.6837 406.434 92.2235 407.23 91.8996C408.031 91.5701 408.954 91.4053 410 91.4053C411.534 91.4053 412.741 91.732 413.622 92.3854C414.508 93.0388 415.056 93.9224 415.267 95.036ZM427.719 95.036L424.906 95.3428C424.827 95.0587 424.687 94.7917 424.488 94.5417C424.295 94.2917 424.034 94.09 423.704 93.9366C423.375 93.7832 422.971 93.7065 422.494 93.7065C421.852 93.7065 421.312 93.8457 420.875 94.1241C420.443 94.4025 420.23 94.7633 420.236 95.2065C420.23 95.5871 420.369 95.8968 420.653 96.1354C420.943 96.3741 421.42 96.5701 422.085 96.7235L424.318 97.2008C425.557 97.4678 426.477 97.8911 427.079 98.4707C427.687 99.0502 427.994 99.8087 428 100.746C427.994 101.57 427.753 102.297 427.275 102.928C426.804 103.553 426.148 104.042 425.307 104.394C424.466 104.746 423.5 104.922 422.409 104.922C420.807 104.922 419.517 104.587 418.54 103.917C417.562 103.241 416.98 102.3 416.792 101.096L419.801 100.806C419.937 101.397 420.227 101.843 420.67 102.144C421.113 102.445 421.69 102.596 422.4 102.596C423.133 102.596 423.721 102.445 424.165 102.144C424.613 101.843 424.838 101.471 424.838 101.027C424.838 100.652 424.693 100.343 424.403 100.099C424.119 99.8542 423.676 99.6667 423.074 99.536L420.841 99.0673C419.585 98.8059 418.656 98.3656 418.054 97.7462C417.452 97.1212 417.153 96.3315 417.159 95.3769C417.153 94.5701 417.372 93.8712 417.815 93.2803C418.264 92.6837 418.886 92.2235 419.682 91.8996C420.483 91.5701 421.406 91.4053 422.452 91.4053C423.986 91.4053 425.193 91.732 426.074 92.3854C426.96 93.0388 427.508 93.9224 427.719 95.036ZM435.534 104.922C434.256 104.922 433.148 104.641 432.21 104.079C431.273 103.516 430.545 102.729 430.028 101.718C429.517 100.706 429.261 99.5246 429.261 98.1724C429.261 96.8201 429.517 95.6354 430.028 94.6184C430.545 93.6013 431.273 92.8116 432.21 92.2491C433.148 91.6866 434.256 91.4053 435.534 91.4053C436.813 91.4053 437.92 91.6866 438.858 92.2491C439.795 92.8116 440.52 93.6013 441.031 94.6184C441.548 95.6354 441.807 96.8201 441.807 98.1724C441.807 99.5246 441.548 100.706 441.031 101.718C440.52 102.729 439.795 103.516 438.858 104.079C437.92 104.641 436.813 104.922 435.534 104.922ZM435.551 102.451C436.244 102.451 436.824 102.26 437.29 101.88C437.756 101.493 438.102 100.976 438.33 100.329C438.563 99.6809 438.679 98.9593 438.679 98.1638C438.679 97.3627 438.563 96.6383 438.33 95.9906C438.102 95.3371 437.756 94.8173 437.29 94.4309C436.824 94.0445 436.244 93.8513 435.551 93.8513C434.841 93.8513 434.25 94.0445 433.778 94.4309C433.313 94.8173 432.963 95.3371 432.73 95.9906C432.503 96.6383 432.389 97.3627 432.389 98.1638C432.389 98.9593 432.503 99.6809 432.73 100.329C432.963 100.976 433.313 101.493 433.778 101.88C434.25 102.26 434.841 102.451 435.551 102.451ZM443.705 104.667V91.5758H446.697V93.7576H446.833C447.072 93.0019 447.481 92.4195 448.061 92.0104C448.646 91.5957 449.313 91.3883 450.063 91.3883C450.234 91.3883 450.424 91.3968 450.634 91.4138C450.85 91.4252 451.029 91.4451 451.171 91.4735V94.3116C451.041 94.2661 450.833 94.2263 450.549 94.1923C450.271 94.1525 450.001 94.1326 449.74 94.1326C449.177 94.1326 448.671 94.2548 448.222 94.4991C447.779 94.7377 447.43 95.0701 447.174 95.4962C446.919 95.9224 446.791 96.4138 446.791 96.9707V104.667H443.705Z" fill="white"/>
</g>
<g id="Frame 79">
<g id="Rectangle 4_3" filter="url(#filter13_ii_0_1)">
<path d="M298.333 89.6667C297.229 89.6667 296.333 88.7713 296.333 87.6667V79.6667C296.333 78.5621 297.229 77.6667 298.333 77.6667H315.333V89.6667H298.333Z" fill="white"/>
<path d="M298.333 89.6667C297.229 89.6667 296.333 88.7713 296.333 87.6667V79.6667C296.333 78.5621 297.229 77.6667 298.333 77.6667H315.333V89.6667H298.333Z" fill="url(#paint15_linear_0_1)" fill-opacity="0.89"/>
</g>
<g id="Rectangle 5_3" filter="url(#filter14_ii_0_1)">
<path d="M298.333 114.667C297.229 114.667 296.333 113.771 296.333 112.667V104.667C296.333 103.562 297.229 102.667 298.333 102.667H315.333V114.667H298.333Z" fill="white"/>
<path d="M298.333 114.667C297.229 114.667 296.333 113.771 296.333 112.667V104.667C296.333 103.562 297.229 102.667 298.333 102.667H315.333V114.667H298.333Z" fill="url(#paint16_linear_0_1)" fill-opacity="0.89"/>
</g>
</g>
<g id="Frame 80">
<g id="Rectangle 4_4" filter="url(#filter15_ii_0_1)">
<path d="M493.333 89.6667C494.438 89.6667 495.333 88.7713 495.333 87.6667V79.6667C495.333 78.5621 494.438 77.6667 493.333 77.6667H476.333V89.6667H493.333Z" fill="white"/>
<path d="M493.333 89.6667C494.438 89.6667 495.333 88.7713 495.333 87.6667V79.6667C495.333 78.5621 494.438 77.6667 493.333 77.6667H476.333V89.6667H493.333Z" fill="url(#paint17_linear_0_1)" fill-opacity="0.89"/>
</g>
<g id="Rectangle 5_4" filter="url(#filter16_ii_0_1)">
<path d="M493.333 114.667C494.438 114.667 495.333 113.771 495.333 112.667V104.667C495.333 103.562 494.438 102.667 493.333 102.667H476.333V114.667H493.333Z" fill="white"/>
<path d="M493.333 114.667C494.438 114.667 495.333 113.771 495.333 112.667V104.667C495.333 103.562 494.438 102.667 493.333 102.667H476.333V114.667H493.333Z" fill="url(#paint18_linear_0_1)" fill-opacity="0.89"/>
</g>
</g>
</g>
</g>
</g>
</g>
<defs>
<filter id="filter0_ii_0_1" x="325.333" y="37.6667" width="12" height="23" filterUnits="userSpaceOnUse" color-interpolation-filters="sRGB">
<feFlood flood-opacity="0" result="BackgroundImageFix"/>
<feBlend mode="normal" in="SourceGraphic" in2="BackgroundImageFix" result="shape"/>
<feColorMatrix in="SourceAlpha" type="matrix" values="0 0 0 0 0 0 0 0 0 0 0 0 0 0 0 0 0 0 127 0" result="hardAlpha"/>
<feOffset/>
<feGaussianBlur stdDeviation="1.65"/>
<feComposite in2="hardAlpha" operator="arithmetic" k2="-1" k3="1"/>
<feColorMatrix type="matrix" values="0 0 0 0 1 0 0 0 0 1 0 0 0 0 1 0 0 0 1 0"/>
<feBlend mode="normal" in2="shape" result="effect1_innerShadow_0_1"/>
<feColorMatrix in="SourceAlpha" type="matrix" values="0 0 0 0 0 0 0 0 0 0 0 0 0 0 0 0 0 0 127 0" result="hardAlpha"/>
<feOffset dy="-4"/>
<feGaussianBlur stdDeviation="2"/>
<feComposite in2="hardAlpha" operator="arithmetic" k2="-1" k3="1"/>
<feColorMatrix type="matrix" values="0 0 0 0 1 0 0 0 0 1 0 0 0 0 1 0 0 0 0.25 0"/>
<feBlend mode="normal" in2="effect1_innerShadow_0_1" result="effect2_innerShadow_0_1"/>
</filter>
<filter id="filter1_ii_0_1" x="351.133" y="37.6667" width="12" height="23" filterUnits="userSpaceOnUse" color-interpolation-filters="sRGB">
<feFlood flood-opacity="0" result="BackgroundImageFix"/>
<feBlend mode="normal" in="SourceGraphic" in2="BackgroundImageFix" result="shape"/>
<feColorMatrix in="SourceAlpha" type="matrix" values="0 0 0 0 0 0 0 0 0 0 0 0 0 0 0 0 0 0 127 0" result="hardAlpha"/>
<feOffset/>
<feGaussianBlur stdDeviation="1.65"/>
<feComposite in2="hardAlpha" operator="arithmetic" k2="-1" k3="1"/>
<feColorMatrix type="matrix" values="0 0 0 0 1 0 0 0 0 1 0 0 0 0 1 0 0 0 1 0"/>
<feBlend mode="normal" in2="shape" result="effect1_innerShadow_0_1"/>
<feColorMatrix in="SourceAlpha" type="matrix" values="0 0 0 0 0 0 0 0 0 0 0 0 0 0 0 0 0 0 127 0" result="hardAlpha"/>
<feOffset dy="-4"/>
<feGaussianBlur stdDeviation="2"/>
<feComposite in2="hardAlpha" operator="arithmetic" k2="-1" k3="1"/>
<feColorMatrix type="matrix" values="0 0 0 0 1 0 0 0 0 1 0 0 0 0 1 0 0 0 0.25 0"/>
<feBlend mode="normal" in2="effect1_innerShadow_0_1" result="effect2_innerShadow_0_1"/>
</filter>
<filter id="filter2_ii_0_1" x="376.933" y="37.6667" width="12" height="23" filterUnits="userSpaceOnUse" color-interpolation-filters="sRGB">
<feFlood flood-opacity="0" result="BackgroundImageFix"/>
<feBlend mode="normal" in="SourceGraphic" in2="BackgroundImageFix" result="shape"/>
<feColorMatrix in="SourceAlpha" type="matrix" values="0 0 0 0 0 0 0 0 0 0 0 0 0 0 0 0 0 0 127 0" result="hardAlpha"/>
<feOffset/>
<feGaussianBlur stdDeviation="1.65"/>
<feComposite in2="hardAlpha" operator="arithmetic" k2="-1" k3="1"/>
<feColorMatrix type="matrix" values="0 0 0 0 1 0 0 0 0 1 0 0 0 0 1 0 0 0 1 0"/>
<feBlend mode="normal" in2="shape" result="effect1_innerShadow_0_1"/>
<feColorMatrix in="SourceAlpha" type="matrix" values="0 0 0 0 0 0 0 0 0 0 0 0 0 0 0 0 0 0 127 0" result="hardAlpha"/>
<feOffset dy="-4"/>
<feGaussianBlur stdDeviation="2"/>
<feComposite in2="hardAlpha" operator="arithmetic" k2="-1" k3="1"/>
<feColorMatrix type="matrix" values="0 0 0 0 1 0 0 0 0 1 0 0 0 0 1 0 0 0 0.25 0"/>
<feBlend mode="normal" in2="effect1_innerShadow_0_1" result="effect2_innerShadow_0_1"/>
</filter>
<filter id="filter3_ii_0_1" x="402.733" y="37.6667" width="12" height="23" filterUnits="userSpaceOnUse" color-interpolation-filters="sRGB">
<feFlood flood-opacity="0" result="BackgroundImageFix"/>
<feBlend mode="normal" in="SourceGraphic" in2="BackgroundImageFix" result="shape"/>
<feColorMatrix in="SourceAlpha" type="matrix" values="0 0 0 0 0 0 0 0 0 0 0 0 0 0 0 0 0 0 127 0" result="hardAlpha"/>
<feOffset/>
<feGaussianBlur stdDeviation="1.65"/>
<feComposite in2="hardAlpha" operator="arithmetic" k2="-1" k3="1"/>
<feColorMatrix type="matrix" values="0 0 0 0 1 0 0 0 0 1 0 0 0 0 1 0 0 0 1 0"/>
<feBlend mode="normal" in2="shape" result="effect1_innerShadow_0_1"/>
<feColorMatrix in="SourceAlpha" type="matrix" values="0 0 0 0 0 0 0 0 0 0 0 0 0 0 0 0 0 0 127 0" result="hardAlpha"/>
<feOffset dy="-4"/>
<feGaussianBlur stdDeviation="2"/>
<feComposite in2="hardAlpha" operator="arithmetic" k2="-1" k3="1"/>
<feColorMatrix type="matrix" values="0 0 0 0 1 0 0 0 0 1 0 0 0 0 1 0 0 0 0.25 0"/>
<feBlend mode="normal" in2="effect1_innerShadow_0_1" result="effect2_innerShadow_0_1"/>
</filter>
<filter id="filter4_ii_0_1" x="428.533" y="37.6667" width="12" height="23" filterUnits="userSpaceOnUse" color-interpolation-filters="sRGB">
<feFlood flood-opacity="0" result="BackgroundImageFix"/>
<feBlend mode="normal" in="SourceGraphic" in2="BackgroundImageFix" result="shape"/>
<feColorMatrix in="SourceAlpha" type="matrix" values="0 0 0 0 0 0 0 0 0 0 0 0 0 0 0 0 0 0 127 0" result="hardAlpha"/>
<feOffset/>
<feGaussianBlur stdDeviation="1.65"/>
<feComposite in2="hardAlpha" operator="arithmetic" k2="-1" k3="1"/>
<feColorMatrix type="matrix" values="0 0 0 0 1 0 0 0 0 1 0 0 0 0 1 0 0 0 1 0"/>
<feBlend mode="normal" in2="shape" result="effect1_innerShadow_0_1"/>
<feColorMatrix in="SourceAlpha" type="matrix" values="0 0 0 0 0 0 0 0 0 0 0 0 0 0 0 0 0 0 127 0" result="hardAlpha"/>
<feOffset dy="-4"/>
<feGaussianBlur stdDeviation="2"/>
<feComposite in2="hardAlpha" operator="arithmetic" k2="-1" k3="1"/>
<feColorMatrix type="matrix" values="0 0 0 0 1 0 0 0 0 1 0 0 0 0 1 0 0 0 0.25 0"/>
<feBlend mode="normal" in2="effect1_innerShadow_0_1" result="effect2_innerShadow_0_1"/>
</filter>
<filter id="filter5_ii_0_1" x="454.333" y="37.6667" width="12" height="23" filterUnits="userSpaceOnUse" color-interpolation-filters="sRGB">
<feFlood flood-opacity="0" result="BackgroundImageFix"/>
<feBlend mode="normal" in="SourceGraphic" in2="BackgroundImageFix" result="shape"/>
<feColorMatrix in="SourceAlpha" type="matrix" values="0 0 0 0 0 0 0 0 0 0 0 0 0 0 0 0 0 0 127 0" result="hardAlpha"/>
<feOffset/>
<feGaussianBlur stdDeviation="1.65"/>
<feComposite in2="hardAlpha" operator="arithmetic" k2="-1" k3="1"/>
<feColorMatrix type="matrix" values="0 0 0 0 1 0 0 0 0 1 0 0 0 0 1 0 0 0 1 0"/>
<feBlend mode="normal" in2="shape" result="effect1_innerShadow_0_1"/>
<feColorMatrix in="SourceAlpha" type="matrix" values="0 0 0 0 0 0 0 0 0 0 0 0 0 0 0 0 0 0 127 0" result="hardAlpha"/>
<feOffset dy="-4"/>
<feGaussianBlur stdDeviation="2"/>
<feComposite in2="hardAlpha" operator="arithmetic" k2="-1" k3="1"/>
<feColorMatrix type="matrix" values="0 0 0 0 1 0 0 0 0 1 0 0 0 0 1 0 0 0 0.25 0"/>
<feBlend mode="normal" in2="effect1_innerShadow_0_1" result="effect2_innerShadow_0_1"/>
</filter>
<filter id="filter6_ii_0_1" x="325.333" y="127.667" width="12" height="23" filterUnits="userSpaceOnUse" color-interpolation-filters="sRGB">
<feFlood flood-opacity="0" result="BackgroundImageFix"/>
<feBlend mode="normal" in="SourceGraphic" in2="BackgroundImageFix" result="shape"/>
<feColorMatrix in="SourceAlpha" type="matrix" values="0 0 0 0 0 0 0 0 0 0 0 0 0 0 0 0 0 0 127 0" result="hardAlpha"/>
<feOffset/>
<feGaussianBlur stdDeviation="1.65"/>
<feComposite in2="hardAlpha" operator="arithmetic" k2="-1" k3="1"/>
<feColorMatrix type="matrix" values="0 0 0 0 1 0 0 0 0 1 0 0 0 0 1 0 0 0 1 0"/>
<feBlend mode="normal" in2="shape" result="effect1_innerShadow_0_1"/>
<feColorMatrix in="SourceAlpha" type="matrix" values="0 0 0 0 0 0 0 0 0 0 0 0 0 0 0 0 0 0 127 0" result="hardAlpha"/>
<feOffset dy="-4"/>
<feGaussianBlur stdDeviation="2"/>
<feComposite in2="hardAlpha" operator="arithmetic" k2="-1" k3="1"/>
<feColorMatrix type="matrix" values="0 0 0 0 1 0 0 0 0 1 0 0 0 0 1 0 0 0 0.25 0"/>
<feBlend mode="normal" in2="effect1_innerShadow_0_1" result="effect2_innerShadow_0_1"/>
</filter>
<filter id="filter7_ii_0_1" x="351.133" y="127.667" width="12" height="23" filterUnits="userSpaceOnUse" color-interpolation-filters="sRGB">
<feFlood flood-opacity="0" result="BackgroundImageFix"/>
<feBlend mode="normal" in="SourceGraphic" in2="BackgroundImageFix" result="shape"/>
<feColorMatrix in="SourceAlpha" type="matrix" values="0 0 0 0 0 0 0 0 0 0 0 0 0 0 0 0 0 0 127 0" result="hardAlpha"/>
<feOffset/>
<feGaussianBlur stdDeviation="1.65"/>
<feComposite in2="hardAlpha" operator="arithmetic" k2="-1" k3="1"/>
<feColorMatrix type="matrix" values="0 0 0 0 1 0 0 0 0 1 0 0 0 0 1 0 0 0 1 0"/>
<feBlend mode="normal" in2="shape" result="effect1_innerShadow_0_1"/>
<feColorMatrix in="SourceAlpha" type="matrix" values="0 0 0 0 0 0 0 0 0 0 0 0 0 0 0 0 0 0 127 0" result="hardAlpha"/>
<feOffset dy="-4"/>
<feGaussianBlur stdDeviation="2"/>
<feComposite in2="hardAlpha" operator="arithmetic" k2="-1" k3="1"/>
<feColorMatrix type="matrix" values="0 0 0 0 1 0 0 0 0 1 0 0 0 0 1 0 0 0 0.25 0"/>
<feBlend mode="normal" in2="effect1_innerShadow_0_1" result="effect2_innerShadow_0_1"/>
</filter>
<filter id="filter8_ii_0_1" x="376.933" y="127.667" width="12" height="23" filterUnits="userSpaceOnUse" color-interpolation-filters="sRGB">
<feFlood flood-opacity="0" result="BackgroundImageFix"/>
<feBlend mode="normal" in="SourceGraphic" in2="BackgroundImageFix" result="shape"/>
<feColorMatrix in="SourceAlpha" type="matrix" values="0 0 0 0 0 0 0 0 0 0 0 0 0 0 0 0 0 0 127 0" result="hardAlpha"/>
<feOffset/>
<feGaussianBlur stdDeviation="1.65"/>
<feComposite in2="hardAlpha" operator="arithmetic" k2="-1" k3="1"/>
<feColorMatrix type="matrix" values="0 0 0 0 1 0 0 0 0 1 0 0 0 0 1 0 0 0 1 0"/>
<feBlend mode="normal" in2="shape" result="effect1_innerShadow_0_1"/>
<feColorMatrix in="SourceAlpha" type="matrix" values="0 0 0 0 0 0 0 0 0 0 0 0 0 0 0 0 0 0 127 0" result="hardAlpha"/>
<feOffset dy="-4"/>
<feGaussianBlur stdDeviation="2"/>
<feComposite in2="hardAlpha" operator="arithmetic" k2="-1" k3="1"/>
<feColorMatrix type="matrix" values="0 0 0 0 1 0 0 0 0 1 0 0 0 0 1 0 0 0 0.25 0"/>
<feBlend mode="normal" in2="effect1_innerShadow_0_1" result="effect2_innerShadow_0_1"/>
</filter>
<filter id="filter9_ii_0_1" x="402.733" y="127.667" width="12" height="23" filterUnits="userSpaceOnUse" color-interpolation-filters="sRGB">
<feFlood flood-opacity="0" result="BackgroundImageFix"/>
<feBlend mode="normal" in="SourceGraphic" in2="BackgroundImageFix" result="shape"/>
<feColorMatrix in="SourceAlpha" type="matrix" values="0 0 0 0 0 0 0 0 0 0 0 0 0 0 0 0 0 0 127 0" result="hardAlpha"/>
<feOffset/>
<feGaussianBlur stdDeviation="1.65"/>
<feComposite in2="hardAlpha" operator="arithmetic" k2="-1" k3="1"/>
<feColorMatrix type="matrix" values="0 0 0 0 1 0 0 0 0 1 0 0 0 0 1 0 0 0 1 0"/>
<feBlend mode="normal" in2="shape" result="effect1_innerShadow_0_1"/>
<feColorMatrix in="SourceAlpha" type="matrix" values="0 0 0 0 0 0 0 0 0 0 0 0 0 0 0 0 0 0 127 0" result="hardAlpha"/>
<feOffset dy="-4"/>
<feGaussianBlur stdDeviation="2"/>
<feComposite in2="hardAlpha" operator="arithmetic" k2="-1" k3="1"/>
<feColorMatrix type="matrix" values="0 0 0 0 1 0 0 0 0 1 0 0 0 0 1 0 0 0 0.25 0"/>
<feBlend mode="normal" in2="effect1_innerShadow_0_1" result="effect2_innerShadow_0_1"/>
</filter>
<filter id="filter10_ii_0_1" x="428.533" y="127.667" width="12" height="23" filterUnits="userSpaceOnUse" color-interpolation-filters="sRGB">
<feFlood flood-opacity="0" result="BackgroundImageFix"/>
<feBlend mode="normal" in="SourceGraphic" in2="BackgroundImageFix" result="shape"/>
<feColorMatrix in="SourceAlpha" type="matrix" values="0 0 0 0 0 0 0 0 0 0 0 0 0 0 0 0 0 0 127 0" result="hardAlpha"/>
<feOffset/>
<feGaussianBlur stdDeviation="1.65"/>
<feComposite in2="hardAlpha" operator="arithmetic" k2="-1" k3="1"/>
<feColorMatrix type="matrix" values="0 0 0 0 1 0 0 0 0 1 0 0 0 0 1 0 0 0 1 0"/>
<feBlend mode="normal" in2="shape" result="effect1_innerShadow_0_1"/>
<feColorMatrix in="SourceAlpha" type="matrix" values="0 0 0 0 0 0 0 0 0 0 0 0 0 0 0 0 0 0 127 0" result="hardAlpha"/>
<feOffset dy="-4"/>
<feGaussianBlur stdDeviation="2"/>
<feComposite in2="hardAlpha" operator="arithmetic" k2="-1" k3="1"/>
<feColorMatrix type="matrix" values="0 0 0 0 1 0 0 0 0 1 0 0 0 0 1 0 0 0 0.25 0"/>
<feBlend mode="normal" in2="effect1_innerShadow_0_1" result="effect2_innerShadow_0_1"/>
</filter>
<filter id="filter11_ii_0_1" x="454.333" y="127.667" width="12" height="23" filterUnits="userSpaceOnUse" color-interpolation-filters="sRGB">
<feFlood flood-opacity="0" result="BackgroundImageFix"/>
<feBlend mode="normal" in="SourceGraphic" in2="BackgroundImageFix" result="shape"/>
<feColorMatrix in="SourceAlpha" type="matrix" values="0 0 0 0 0 0 0 0 0 0 0 0 0 0 0 0 0 0 127 0" result="hardAlpha"/>
<feOffset/>
<feGaussianBlur stdDeviation="1.65"/>
<feComposite in2="hardAlpha" operator="arithmetic" k2="-1" k3="1"/>
<feColorMatrix type="matrix" values="0 0 0 0 1 0 0 0 0 1 0 0 0 0 1 0 0 0 1 0"/>
<feBlend mode="normal" in2="shape" result="effect1_innerShadow_0_1"/>
<feColorMatrix in="SourceAlpha" type="matrix" values="0 0 0 0 0 0 0 0 0 0 0 0 0 0 0 0 0 0 127 0" result="hardAlpha"/>
<feOffset dy="-4"/>
<feGaussianBlur stdDeviation="2"/>
<feComposite in2="hardAlpha" operator="arithmetic" k2="-1" k3="1"/>
<feColorMatrix type="matrix" values="0 0 0 0 1 0 0 0 0 1 0 0 0 0 1 0 0 0 0.25 0"/>
<feBlend mode="normal" in2="effect1_innerShadow_0_1" result="effect2_innerShadow_0_1"/>
</filter>
<filter id="filter12_ddddn_0_1" x="312.833" y="56.6667" width="207" height="112" filterUnits="userSpaceOnUse" color-interpolation-filters="sRGB">
<feFlood flood-opacity="0" result="BackgroundImageFix"/>
<feColorMatrix in="SourceAlpha" type="matrix" values="0 0 0 0 0 0 0 0 0 0 0 0 0 0 0 0 0 0 127 0" result="hardAlpha"/>
<feOffset dx="2" dy="1"/>
<feGaussianBlur stdDeviation="2.5"/>
<feColorMatrix type="matrix" values="0 0 0 0 0 0 0 0 0 0 0 0 0 0 0 0 0 0 0.1 0"/>
<feBlend mode="normal" in2="BackgroundImageFix" result="effect1_dropShadow_0_1"/>
<feColorMatrix in="SourceAlpha" type="matrix" values="0 0 0 0 0 0 0 0 0 0 0 0 0 0 0 0 0 0 127 0" result="hardAlpha"/>
<feOffset dx="7" dy="6"/>
<feGaussianBlur stdDeviation="4.5"/>
<feColorMatrix type="matrix" values="0 0 0 0 0 0 0 0 0 0 0 0 0 0 0 0 0 0 0.09 0"/>
<feBlend mode="normal" in2="effect1_dropShadow_0_1" result="effect2_dropShadow_0_1"/>
<feColorMatrix in="SourceAlpha" type="matrix" values="0 0 0 0 0 0 0 0 0 0 0 0 0 0 0 0 0 0 127 0" result="hardAlpha"/>
<feOffset dx="16" dy="12"/>
<feGaussianBlur stdDeviation="6"/>
<feColorMatrix type="matrix" values="0 0 0 0 0 0 0 0 0 0 0 0 0 0 0 0 0 0 0.05 0"/>
<feBlend mode="normal" in2="effect2_dropShadow_0_1" result="effect3_dropShadow_0_1"/>
<feColorMatrix in="SourceAlpha" type="matrix" values="0 0 0 0 0 0 0 0 0 0 0 0 0 0 0 0 0 0 127 0" result="hardAlpha"/>
<feOffset dx="29" dy="22"/>
<feGaussianBlur stdDeviation="7.5"/>
<feColorMatrix type="matrix" values="0 0 0 0 0 0 0 0 0 0 0 0 0 0 0 0 0 0 0.01 0"/>
<feBlend mode="normal" in2="effect3_dropShadow_0_1" result="effect4_dropShadow_0_1"/>
<feBlend mode="normal" in="SourceGraphic" in2="BackgroundImageFix" result="shape"/>
<feTurbulence type="fractalNoise" baseFrequency="1 1" stitchTiles="stitch" numOctaves="3" result="noise" seed="3875" />
<feColorMatrix in="noise" type="luminanceToAlpha" result="alphaNoise" />
<feComponentTransfer in="alphaNoise" result="coloredNoise1">
<feFuncA type="discrete" tableValues="1 1 1 1 1 1 1 1 1 1 1 1 1 1 1 1 1 1 1 1 1 1 1 1 1 1 1 1 1 1 1 1 1 1 1 1 1 1 1 1 1 1 1 1 1 1 1 1 1 1 1 0 0 0 0 0 0 0 0 0 0 0 0 0 0 0 0 0 0 0 0 0 0 0 0 0 0 0 0 0 0 0 0 0 0 0 0 0 0 0 0 0 0 0 0 0 0 0 0 0 "/>
</feComponentTransfer>
<feComposite operator="in" in2="shape" in="coloredNoise1" result="noise1Clipped" />
<feFlood flood-color="rgba(255, 255, 255, 0.06)" result="color1Flood" />
<feComposite operator="in" in2="noise1Clipped" in="color1Flood" result="color1" />
<feMerge result="effect5_noise_0_1">
<feMergeNode in="shape" />
<feMergeNode in="color1" />
</feMerge>
<feBlend mode="normal" in="effect5_noise_0_1" in2="effect4_dropShadow_0_1" result="effect5_noise_0_1"/>
</filter>
<filter id="filter13_ii_0_1" x="296.333" y="73.6667" width="19" height="16" filterUnits="userSpaceOnUse" color-interpolation-filters="sRGB">
<feFlood flood-opacity="0" result="BackgroundImageFix"/>
<feBlend mode="normal" in="SourceGraphic" in2="BackgroundImageFix" result="shape"/>
<feColorMatrix in="SourceAlpha" type="matrix" values="0 0 0 0 0 0 0 0 0 0 0 0 0 0 0 0 0 0 127 0" result="hardAlpha"/>
<feOffset/>
<feGaussianBlur stdDeviation="1.65"/>
<feComposite in2="hardAlpha" operator="arithmetic" k2="-1" k3="1"/>
<feColorMatrix type="matrix" values="0 0 0 0 1 0 0 0 0 1 0 0 0 0 1 0 0 0 1 0"/>
<feBlend mode="normal" in2="shape" result="effect1_innerShadow_0_1"/>
<feColorMatrix in="SourceAlpha" type="matrix" values="0 0 0 0 0 0 0 0 0 0 0 0 0 0 0 0 0 0 127 0" result="hardAlpha"/>
<feOffset dy="-4"/>
<feGaussianBlur stdDeviation="2"/>
<feComposite in2="hardAlpha" operator="arithmetic" k2="-1" k3="1"/>
<feColorMatrix type="matrix" values="0 0 0 0 1 0 0 0 0 1 0 0 0 0 1 0 0 0 0.25 0"/>
<feBlend mode="normal" in2="effect1_innerShadow_0_1" result="effect2_innerShadow_0_1"/>
</filter>
<filter id="filter14_ii_0_1" x="296.333" y="98.6667" width="19" height="16" filterUnits="userSpaceOnUse" color-interpolation-filters="sRGB">
<feFlood flood-opacity="0" result="BackgroundImageFix"/>
<feBlend mode="normal" in="SourceGraphic" in2="BackgroundImageFix" result="shape"/>
<feColorMatrix in="SourceAlpha" type="matrix" values="0 0 0 0 0 0 0 0 0 0 0 0 0 0 0 0 0 0 127 0" result="hardAlpha"/>
<feOffset/>
<feGaussianBlur stdDeviation="1.65"/>
<feComposite in2="hardAlpha" operator="arithmetic" k2="-1" k3="1"/>
<feColorMatrix type="matrix" values="0 0 0 0 1 0 0 0 0 1 0 0 0 0 1 0 0 0 1 0"/>
<feBlend mode="normal" in2="shape" result="effect1_innerShadow_0_1"/>
<feColorMatrix in="SourceAlpha" type="matrix" values="0 0 0 0 0 0 0 0 0 0 0 0 0 0 0 0 0 0 127 0" result="hardAlpha"/>
<feOffset dy="-4"/>
<feGaussianBlur stdDeviation="2"/>
<feComposite in2="hardAlpha" operator="arithmetic" k2="-1" k3="1"/>
<feColorMatrix type="matrix" values="0 0 0 0 1 0 0 0 0 1 0 0 0 0 1 0 0 0 0.25 0"/>
<feBlend mode="normal" in2="effect1_innerShadow_0_1" result="effect2_innerShadow_0_1"/>
</filter>
<filter id="filter15_ii_0_1" x="476.333" y="73.6667" width="19" height="16" filterUnits="userSpaceOnUse" color-interpolation-filters="sRGB">
<feFlood flood-opacity="0" result="BackgroundImageFix"/>
<feBlend mode="normal" in="SourceGraphic" in2="BackgroundImageFix" result="shape"/>
<feColorMatrix in="SourceAlpha" type="matrix" values="0 0 0 0 0 0 0 0 0 0 0 0 0 0 0 0 0 0 127 0" result="hardAlpha"/>
<feOffset/>
<feGaussianBlur stdDeviation="1.65"/>
<feComposite in2="hardAlpha" operator="arithmetic" k2="-1" k3="1"/>
<feColorMatrix type="matrix" values="0 0 0 0 1 0 0 0 0 1 0 0 0 0 1 0 0 0 1 0"/>
<feBlend mode="normal" in2="shape" result="effect1_innerShadow_0_1"/>
<feColorMatrix in="SourceAlpha" type="matrix" values="0 0 0 0 0 0 0 0 0 0 0 0 0 0 0 0 0 0 127 0" result="hardAlpha"/>
<feOffset dy="-4"/>
<feGaussianBlur stdDeviation="2"/>
<feComposite in2="hardAlpha" operator="arithmetic" k2="-1" k3="1"/>
<feColorMatrix type="matrix" values="0 0 0 0 1 0 0 0 0 1 0 0 0 0 1 0 0 0 0.25 0"/>
<feBlend mode="normal" in2="effect1_innerShadow_0_1" result="effect2_innerShadow_0_1"/>
</filter>
<filter id="filter16_ii_0_1" x="476.333" y="98.6667" width="19" height="16" filterUnits="userSpaceOnUse" color-interpolation-filters="sRGB">
<feFlood flood-opacity="0" result="BackgroundImageFix"/>
<feBlend mode="normal" in="SourceGraphic" in2="BackgroundImageFix" result="shape"/>
<feColorMatrix in="SourceAlpha" type="matrix" values="0 0 0 0 0 0 0 0 0 0 0 0 0 0 0 0 0 0 127 0" result="hardAlpha"/>
<feOffset/>
<feGaussianBlur stdDeviation="1.65"/>
<feComposite in2="hardAlpha" operator="arithmetic" k2="-1" k3="1"/>
<feColorMatrix type="matrix" values="0 0 0 0 1 0 0 0 0 1 0 0 0 0 1 0 0 0 1 0"/>
<feBlend mode="normal" in2="shape" result="effect1_innerShadow_0_1"/>
<feColorMatrix in="SourceAlpha" type="matrix" values="0 0 0 0 0 0 0 0 0 0 0 0 0 0 0 0 0 0 127 0" result="hardAlpha"/>
<feOffset dy="-4"/>
<feGaussianBlur stdDeviation="2"/>
<feComposite in2="hardAlpha" operator="arithmetic" k2="-1" k3="1"/>
<feColorMatrix type="matrix" values="0 0 0 0 1 0 0 0 0 1 0 0 0 0 1 0 0 0 0.25 0"/>
<feBlend mode="normal" in2="effect1_innerShadow_0_1" result="effect2_innerShadow_0_1"/>
</filter>
<linearGradient id="paint0_linear_0_1" x1="331.333" y1="41.6667" x2="331.333" y2="60.6667" gradientUnits="userSpaceOnUse">
<stop stop-color="#919191"/>
<stop offset="0.5" stop-color="#696969"/>
<stop offset="0.75" stop-color="#838383"/>
<stop offset="0.875" stop-color="#626262"/>
<stop offset="1" stop-color="#737373"/>
</linearGradient>
<linearGradient id="paint1_linear_0_1" x1="357.133" y1="41.6667" x2="357.133" y2="60.6667" gradientUnits="userSpaceOnUse">
<stop stop-color="#919191"/>
<stop offset="0.5" stop-color="#696969"/>
<stop offset="0.75" stop-color="#838383"/>
<stop offset="0.875" stop-color="#626262"/>
<stop offset="1" stop-color="#737373"/>
</linearGradient>
<linearGradient id="paint2_linear_0_1" x1="382.933" y1="41.6667" x2="382.933" y2="60.6667" gradientUnits="userSpaceOnUse">
<stop stop-color="#919191"/>
<stop offset="0.5" stop-color="#696969"/>
<stop offset="0.75" stop-color="#838383"/>
<stop offset="0.875" stop-color="#626262"/>
<stop offset="1" stop-color="#737373"/>
</linearGradient>
<linearGradient id="paint3_linear_0_1" x1="408.733" y1="41.6667" x2="408.733" y2="60.6667" gradientUnits="userSpaceOnUse">
<stop stop-color="#919191"/>
<stop offset="0.5" stop-color="#696969"/>
<stop offset="0.75" stop-color="#838383"/>
<stop offset="0.875" stop-color="#626262"/>
<stop offset="1" stop-color="#737373"/>
</linearGradient>
<linearGradient id="paint4_linear_0_1" x1="434.533" y1="41.6667" x2="434.533" y2="60.6667" gradientUnits="userSpaceOnUse">
<stop stop-color="#919191"/>
<stop offset="0.5" stop-color="#696969"/>
<stop offset="0.75" stop-color="#838383"/>
<stop offset="0.875" stop-color="#626262"/>
<stop offset="1" stop-color="#737373"/>
</linearGradient>
<linearGradient id="paint5_linear_0_1" x1="460.333" y1="41.6667" x2="460.333" y2="60.6667" gradientUnits="userSpaceOnUse">
<stop stop-color="#919191"/>
<stop offset="0.5" stop-color="#696969"/>
<stop offset="0.75" stop-color="#838383"/>
<stop offset="0.875" stop-color="#626262"/>
<stop offset="1" stop-color="#737373"/>
</linearGradient>
<linearGradient id="paint6_linear_0_1" x1="331.333" y1="150.667" x2="331.333" y2="131.667" gradientUnits="userSpaceOnUse">
<stop stop-color="#919191"/>
<stop offset="0.5" stop-color="#696969"/>
<stop offset="0.75" stop-color="#838383"/>
<stop offset="0.875" stop-color="#626262"/>
<stop offset="1" stop-color="#737373"/>
</linearGradient>
<linearGradient id="paint7_linear_0_1" x1="357.133" y1="150.667" x2="357.133" y2="131.667" gradientUnits="userSpaceOnUse">
<stop stop-color="#919191"/>
<stop offset="0.5" stop-color="#696969"/>
<stop offset="0.75" stop-color="#838383"/>
<stop offset="0.875" stop-color="#626262"/>
<stop offset="1" stop-color="#737373"/>
</linearGradient>
<linearGradient id="paint8_linear_0_1" x1="382.933" y1="150.667" x2="382.933" y2="131.667" gradientUnits="userSpaceOnUse">
<stop stop-color="#919191"/>
<stop offset="0.5" stop-color="#696969"/>
<stop offset="0.75" stop-color="#838383"/>
<stop offset="0.875" stop-color="#626262"/>
<stop offset="1" stop-color="#737373"/>
</linearGradient>
<linearGradient id="paint9_linear_0_1" x1="408.733" y1="150.667" x2="408.733" y2="131.667" gradientUnits="userSpaceOnUse">
<stop stop-color="#919191"/>
<stop offset="0.5" stop-color="#696969"/>
<stop offset="0.75" stop-color="#838383"/>
<stop offset="0.875" stop-color="#626262"/>
<stop offset="1" stop-color="#737373"/>
</linearGradient>
<linearGradient id="paint10_linear_0_1" x1="434.533" y1="150.667" x2="434.533" y2="131.667" gradientUnits="userSpaceOnUse">
<stop stop-color="#919191"/>
<stop offset="0.5" stop-color="#696969"/>
<stop offset="0.75" stop-color="#838383"/>
<stop offset="0.875" stop-color="#626262"/>
<stop offset="1" stop-color="#737373"/>
</linearGradient>
<linearGradient id="paint11_linear_0_1" x1="460.333" y1="150.667" x2="460.333" y2="131.667" gradientUnits="userSpaceOnUse">
<stop stop-color="#919191"/>
<stop offset="0.5" stop-color="#696969"/>
<stop offset="0.75" stop-color="#838383"/>
<stop offset="0.875" stop-color="#626262"/>
<stop offset="1" stop-color="#737373"/>
</linearGradient>
<linearGradient id="paint12_linear_0_1" x1="395.833" y1="60.6667" x2="395.833" y2="131.667" gradientUnits="userSpaceOnUse">
<stop stop-color="#359EF6"/>
<stop offset="1" stop-color="#0540E8"/>
</linearGradient>
<linearGradient id="paint13_linear_0_1" x1="395.833" y1="60.6667" x2="395.833" y2="131.667" gradientUnits="userSpaceOnUse">
<stop stop-color="#2D2D2D"/>
<stop offset="1" stop-color="#181818"/>
</linearGradient>
<linearGradient id="paint14_linear_0_1" x1="395.833" y1="60.6667" x2="395.833" y2="131.667" gradientUnits="userSpaceOnUse">
<stop stop-color="#105FCD"/>
<stop offset="1" stop-color="#4AAFED"/>
</linearGradient>
<linearGradient id="paint15_linear_0_1" x1="296.333" y1="83.6667" x2="315.333" y2="83.6667" gradientUnits="userSpaceOnUse">
<stop stop-color="#919191"/>
<stop offset="0.5" stop-color="#696969"/>
<stop offset="0.75" stop-color="#838383"/>
<stop offset="0.875" stop-color="#626262"/>
<stop offset="1" stop-color="#737373"/>
</linearGradient>
<linearGradient id="paint16_linear_0_1" x1="296.333" y1="108.667" x2="315.333" y2="108.667" gradientUnits="userSpaceOnUse">
<stop stop-color="#919191"/>
<stop offset="0.5" stop-color="#696969"/>
<stop offset="0.75" stop-color="#838383"/>
<stop offset="0.875" stop-color="#626262"/>
<stop offset="1" stop-color="#737373"/>
</linearGradient>
<linearGradient id="paint17_linear_0_1" x1="495.333" y1="83.6667" x2="476.333" y2="83.6667" gradientUnits="userSpaceOnUse">
<stop stop-color="#919191"/>
<stop offset="0.5" stop-color="#696969"/>
<stop offset="0.75" stop-color="#838383"/>
<stop offset="0.875" stop-color="#626262"/>
<stop offset="1" stop-color="#737373"/>
</linearGradient>
<linearGradient id="paint18_linear_0_1" x1="495.333" y1="108.667" x2="476.333" y2="108.667" gradientUnits="userSpaceOnUse">
<stop stop-color="#919191"/>
<stop offset="0.5" stop-color="#696969"/>
<stop offset="0.75" stop-color="#838383"/>
<stop offset="0.875" stop-color="#626262"/>
<stop offset="1" stop-color="#737373"/>
</linearGradient>
<clipPath id="clip0_0_1">
<rect width="791.333" height="191.667" fill="white"/>
</clipPath>
<pattern id="pattern0_0_1" patternUnits="userSpaceOnUse" patternTransform="matrix(57.96 0 0 57.96 366.687 66.8533)" preserveAspectRatio="none" viewBox="0 0 138 138" width="1" height="1">
<g id="pattern0_0_1_inner">
<g id="Frame 655">
<rect x="1" y="1" width="136" height="136" stroke="#8FB1FF" stroke-width="2"/>
</g>
</g>
</pattern></defs>
</svg>
